<?xml version="1.0" encoding="utf-8"?>
<!-- Generator: Adobe Illustrator 26.5.0, SVG Export Plug-In . SVG Version: 6.00 Build 0)  -->
<svg version="1.1" xmlns="http://www.w3.org/2000/svg" xmlns:xlink="http://www.w3.org/1999/xlink" x="0px" y="0px"
	 viewBox="0 0 188.77 71.4" style="enable-background:new 0 0 188.77 71.4;" xml:space="preserve">
<style type="text/css">
	.st0{fill:#00296C;}
	.st1{fill:#00296C;stroke:#FFFFFF;stroke-miterlimit:10;}
	.st2{fill:#FFFFFF;}
	.st3{fill:none;}
	.st4{fill:none;stroke:#FFFFFF;stroke-width:2.4;stroke-miterlimit:10;}
</style>
<g id="Layer_1">
</g>
<g id="Layer_3">
	<g>
		<g>
			<path class="st2" d="M87.51,62.92V41.88h2.59v20.29h11.2v2.36H89.13C88.06,64.53,87.51,63.98,87.51,62.92z"/>
			<path class="st2" d="M106.12,41.39c1.2,0,1.88,0.68,1.88,1.72c0,1.17-0.68,1.84-1.88,1.84s-1.84-0.68-1.84-1.84
				C104.28,42.07,104.93,41.39,106.12,41.39z M104.86,48.26h2.49v16.28h-2.49V48.26z"/>
			<path class="st2" d="M112.53,51.75l-0.49-3.5h2.2l0.49,2.3c1.04-1.71,2.72-2.52,4.92-2.52c2.56,0,4.21,1,5.02,3.11
				c1-2.14,2.88-3.11,5.28-3.11c4.04,0,5.76,2.43,5.76,7.48v9.03h-2.49v-8.87c0-4.05-1.39-5.53-3.82-5.53
				c-2.69,0-4.05,1.88-4.05,5.57v8.84h-2.52v-8.87c0-4.05-1.36-5.53-3.75-5.53c-2.72,0-4.08,1.88-4.08,5.57v8.84h-2.46V51.75z"/>
			<path class="st2" d="M143.08,61.88v9.52h-2.46V51.75l-0.49-3.5h2.2l0.58,2.91c1.26-2.04,3.37-3.14,6.08-3.14
				c4.72,0,7.61,3.43,7.61,8.38c0,4.92-2.88,8.35-7.61,8.35C146.41,64.76,144.34,63.76,143.08,61.88z M148.58,62.63
				c3.33,0,5.5-2.3,5.5-6.21c0-3.95-2.17-6.31-5.5-6.31c-3.37,0-5.5,2.36-5.5,6.31C143.08,60.33,145.21,62.63,148.58,62.63z"/>
			<path class="st2" d="M159.45,56.35c0-4.89,2.91-8.32,7.67-8.32c2.65,0,4.72,1,5.99,2.91l0.36-2.69h2.01v12.75l0.49,3.53h-2.23
				l-0.55-2.82c-1.26,1.97-3.37,3.04-6.05,3.04C162.37,64.76,159.45,61.33,159.45,56.35z M167.48,62.66c3.4,0,5.5-2.33,5.5-6.31
				c0-3.88-2.1-6.21-5.5-6.21c-3.37,0-5.47,2.33-5.47,6.21C162.01,60.33,164.11,62.66,167.48,62.66z"/>
			<path class="st2" d="M180.65,51.75l-0.16-1.2l-0.32-2.3h2.2l0.58,2.56c0.84-1.81,2.36-2.72,4.95-2.72h0.87v2.59h-0.97
				c-3.72,0-4.69,1.2-4.69,5.5v8.35h-2.46V51.75z"/>
		</g>
		<g>
			<path class="st2" d="M11.57,31.67c5.72,4.09,12.35,8.52,16.44,11.01v26.54l12.94-6.66V42.68c4.1-2.49,10.72-6.92,16.44-11.01
				c11.57-8.27,11.57-9.34,11.57-10.12V10.22c0-0.06-0.01-0.12-0.02-0.18c0-0.07,0.02-0.15,0.02-0.22C68.98,3.37,51.63,0,34.49,0
				C17.35,0,0,3.37,0,9.82c0,0.07,0.01,0.15,0.02,0.22C0.01,10.1,0,10.16,0,10.22v11.32C0,22.33,0,23.4,11.57,31.67z M39.1,40.93
				l-0.6,0.36v19.78l-8.03,4.13V41.29l-0.6-0.36c-8.39-5.01-25.8-17.32-27.42-19.62v-7.6c5.37,3.91,18.76,5.93,32.03,5.93
				c13.27,0,26.66-2.02,32.03-5.93v7.6C64.9,23.61,47.49,35.92,39.1,40.93z M66.52,9.82c0,3.07-12.19,7.36-32.03,7.36
				c-19.85,0-32.03-4.29-32.03-7.36s12.19-7.36,32.03-7.36C54.34,2.46,66.52,6.74,66.52,9.82z"/>
			<path class="st2" d="M64.3,37.31c-8.58,0-15.56,6.98-15.56,15.56c0,8.58,6.98,15.56,15.56,15.56c8.58,0,15.56-6.98,15.56-15.56
				C79.86,44.29,72.88,37.31,64.3,37.31z M64.3,65.98c-7.23,0-13.11-5.88-13.11-13.11c0-7.23,5.88-13.11,13.11-13.11
				s13.11,5.88,13.11,13.11C77.41,60.1,71.53,65.98,64.3,65.98z"/>
			<polygon class="st2" points="69.51,49.4 67.77,47.67 64.3,51.14 60.82,47.67 59.09,49.4 62.56,52.87 59.09,56.35 60.82,58.08 
				64.3,54.61 67.77,58.08 69.51,56.35 66.03,52.87 			"/>
		</g>
	</g>
</g>
</svg>
