<?xml version="1.0" encoding="utf-8"?>
<!-- Generator: Adobe Illustrator 26.5.0, SVG Export Plug-In . SVG Version: 6.00 Build 0)  -->
<svg version="1.1" xmlns="http://www.w3.org/2000/svg" xmlns:xlink="http://www.w3.org/1999/xlink" x="0px" y="0px"
	 viewBox="0 0 57.43 71.4" style="enable-background:new 0 0 57.43 71.4;" xml:space="preserve">
<style type="text/css">
	.st0{fill:#00296C;}
	.st1{fill:#00296C;stroke:#FFFFFF;stroke-miterlimit:10;}
	.st2{fill:#FFFFFF;}
	.st3{fill:none;}
	.st4{fill:none;stroke:#FFFFFF;stroke-width:2.4;stroke-miterlimit:10;}
</style>
<g id="Layer_1">
</g>
<g id="Layer_3">
	<g>
		<path class="st2" d="M28.72,64.74C12.88,64.74,0,51.86,0,36.02C0,20.19,12.88,7.31,28.72,7.31s28.72,12.88,28.72,28.72
			C57.43,51.86,44.55,64.74,28.72,64.74z M28.72,9.71C14.21,9.71,2.4,21.51,2.4,36.02s11.8,26.32,26.32,26.32
			s26.32-11.81,26.32-26.32S43.23,9.71,28.72,9.71z"/>
	</g>
	<g>
		<g>
			<polygon class="st2" points="15.91,45.8 6.28,36.17 15.91,26.55 17.61,28.24 9.68,36.17 17.61,44.1 			"/>
		</g>
		<g>
			<rect x="7.98" y="34.97" class="st2" width="42.9" height="2.4"/>
		</g>
	</g>
</g>
</svg>
